<svg xmlns="http://www.w3.org/2000/svg" width="589.541" height="391.054" viewBox="0 0 589.541 391.054">
  <g id="Group_20218" data-name="Group 20218" transform="translate(-231.151 -137.85)">
    <path id="Path_25425" data-name="Path 25425" d="M316.1,527.825s-70.192-71.992-25.492-156.649S395.3,329.122,392.426,230.57s138.02-106.97,182.855-78.379,44.554,63.007,137.135,51.652,110.235,83.574,86.133,131.943c-34.2,68.628,94.824,57.351,13.483,192.21Z" transform="translate(-34.314 0)" fill="#ebf3fa"/>
    <path id="Path_25426" data-name="Path 25426" d="M1577.709,414.782a114.771,114.771,0,0,1-1.842,20.532,114.02,114.02,0,0,1-216.4,25.615,112.125,112.125,0,0,1-5.805-16.392,114.8,114.8,0,0,1-1.342-54.01c.017-.091.04-.176.057-.267a114.287,114.287,0,0,1,44.492-67.809q3.514-2.55,7.232-4.833a113.375,113.375,0,0,1,59.622-16.825q4.349,0,8.614.324a113.215,113.215,0,0,1,56.455,20.065h.006a114.434,114.434,0,0,1,31.267,32.648q2.618,4.136,4.89,8.5a113.466,113.466,0,0,1,12.754,52.452Z" transform="translate(-861.182 -125.446)" fill="#dce8ff"/>
    <path id="Path_25427" data-name="Path 25427" d="M1433.654,420.047c-4.549,7.2,1.9,19.713-11.747,16.3s-21.987-4.93-22.744,2.65,10.235,7.585,10.235,15.545-4.93,10.593-12.509,6.812-9.763-9.279-18.576-5.868-13.931,1.137-15.921-5.686a9.978,9.978,0,0,0-1.416-2.985c.017-.091.039-.176.057-.267a114.29,114.29,0,0,1,44.492-67.81q3.514-2.55,7.233-4.833a14.993,14.993,0,0,1,11.423,5.959c7.96,9.859,13.265,4.93,11.372,16.3s1.137,12.89,7.579,12.509,14.027-.381,14.783,4.549S1438.2,412.843,1433.654,420.047Z" transform="translate(-869.837 -181.736)" fill="#9fbdff" opacity="0.7"/>
    <path id="Path_25428" data-name="Path 25428" d="M1685.943,797.783s-10.045,3.222-12.7-3.791.379-8.529-8.529-10.614-9.666-8.15-15.352-7.392-2.843,3.032-9.477,7.96-12.7,2.654-12.509,11.751,10.045,10.519,12.035,16.489-1.421,8.529,2.843,13.077,12.225,2.559,8.528,8.813-9.381,11.087-6.539,20.753.853,10.234,5.686,17.057,14.215,9.1,15.636,4.549-6.539-10.519-3.98-15.067,6.823-1.422,8.529-8.244,8.624-6.823,9.192-11.561-8.339-11.94-4.928-14.973,10.235,5.5,15.541-2.085,1.706-13.646,7.2-20.848S1689.733,793.613,1685.943,797.783Z" transform="translate(-1074.933 -491.242)" fill="#9fbdff" opacity="0.7"/>
    <path id="Path_25429" data-name="Path 25429" d="M2046.172,635.4a114.781,114.781,0,0,1-1.842,20.532,113.372,113.372,0,0,1-17.99,43.73,13.01,13.01,0,0,1-9.114-.245c-14.215-5.686-3.7-21.037,1.99-28.714s-8.813-4.264-19.332-11.372,1.137-26.155-9.666-23.028-23.881,7.107-30.135-3.411,5.686-12.225.285-21.038,3.127-13.93,13.93-14.783,9.381-8.529,22.744-9.666,13.077,15.921,27.861,14.783,14.118,2.274,14.118,2.274a6.891,6.891,0,0,1,3.088.648A114.218,114.218,0,0,1,2046.172,635.4Z" transform="translate(-1329.645 -346.064)" fill="#9fbdff" opacity="0.7"/>
    <path id="Path_25430" data-name="Path 25430" d="M2053.841,430.538c-12.293,5.981-17.228-10.286-27.736-5.4-10.593,4.929-8.739-4.549-17.075-10.616s-25.017,4.93-24.261-4.549,13.265-6.823,15.92-14.4,14.783-5.686,14.783-5.686a8.21,8.21,0,0,1,2.206-.5s0-.006.006,0a114.426,114.426,0,0,1,31.267,32.648Q2051.57,426.174,2053.841,430.538Z" transform="translate(-1350.067 -193.654)" fill="#9fbdff" opacity="0.7"/>
    <path id="Path_25431" data-name="Path 25431" d="M1734.5,382.362s6.444-9.3-3.79-12.04-10.045.847-18.006,0-11.087,5.312-5.117,12.04,10.8,19.64,16.2,12.757S1728.151,383.025,1734.5,382.362Z" transform="translate(-1134.294 -178.167)" fill="#9fbdff" opacity="0.7"/>
    <path id="Path_25432" data-name="Path 25432" d="M2267.69,1472.032c4.533-14.451-18.717-23.88-18.717-23.88s-27.887,12.543-32.321,10.434,21.748-15.38,21.748-15.38c-7.465-5.852-33.97-9.05-33.97-9.05s-14.782,25.973-18.561,22.836,14.262-22.329,14.262-22.329c-9.175-2.608-22.1,1.785-22.1,1.785-18.327,8.892-11.28,40.857-23.063,47.424h0a35.243,35.243,0,0,0-5.64,3.423l2.1,1.341c.531-.453,1.067-.877,1.61-1.266a.015.015,0,0,1,.01-.007l.024-.016c.351-.233.853-.562,1.469-.96h0s0,0,0,0c1.443-.846,2.469-1.5,3.171-1.991l.007,0c4.438-2.713,13.079-6.413,13.021-5.978-1.324,10,15.822,22.754,27.143,27.094s8.761-1.27,6.3-9.295-14.528-14.03-16.717-17.958,3.835-2.61,10.18,2.166,5.42,13.58,15.543,21.492,31.288-7.118,31.288-7.118c-8.918-2.444-19.642-15.075-18.516-17.97s20.725,9.985,24.3,11.182S2263.157,1486.483,2267.69,1472.032Z" transform="translate(-1476.778 -997.761)" fill="#dfebfd"/>
    <path id="Path_25433" data-name="Path 25433" d="M357.648,1315.485c2.163-19.308,34.333-18.335,34.333-18.335s26.235,29.162,32.532,28.982-17.562-29.313-17.562-29.313c11.792-3,44.556,6.97,44.556,6.97s3.9,38.138,9.96,36.414-5.176-33.593-5.176-33.593c12.119,1.69,25.013,13.539,25.013,13.539,16.906,19.927-7.918,53.794,2.511,67.6h0a45.2,45.2,0,0,1,4.847,6.938l-3.158.486q-.583-1.211-1.235-2.319a.019.019,0,0,0-.008-.014l-.019-.032c-.292-.455-.709-1.1-1.227-1.887l0,0s0,0,0,0c-1.256-1.74-2.123-3.035-2.69-3.979a.044.044,0,0,1,0-.009c-3.8-5.483-12.029-14.3-12.187-13.759-3.621,12.417-30.352,18.512-45.887,17.744s-9.625-6.027-2.579-14.171,24.316-8.944,28.919-12.42-3.15-5.049-13.07-2.73-13.393,13.132-29.372,17.175-33.036-24.557-33.036-24.557c11.733,1.75,30.86-7.522,31.037-11.5s-29.5.987-34.307.543S355.484,1334.792,357.648,1315.485Z" transform="translate(-97.146 -891.84)" fill="#dfebfd"/>
    <g id="Group_20183" data-name="Group 20183" transform="translate(701.031 391.049)">
      <path id="Path_25434" data-name="Path 25434" d="M2287.161,1284.374s8.333-29.724,26.668-45.38a3.428,3.428,0,0,1,5.586,3.218c-.009.053-.019.105-.03.159C2318.343,1247.743,2297.417,1267.826,2287.161,1284.374Z" transform="translate(-2283.924 -1238.169)" fill="#c5ddff" opacity="0.5"/>
      <path id="Path_25435" data-name="Path 25435" d="M2273.1,1313.49s21.361-35.447,50.383-48.074a3.637,3.637,0,0,1,4.729,1.68c.544,1.133.611,2.782-.567,5.155C2324.5,1278.581,2291.548,1296.405,2273.1,1313.49Z" transform="translate(-2273.096 -1258.908)" fill="#c5ddff" opacity="0.5"/>
    </g>
    <g id="Group_20184" data-name="Group 20184" transform="translate(298.108 358.505)">
      <path id="Path_25436" data-name="Path 25436" d="M641.089,1142.948s-8.333-29.724-26.668-45.38a3.428,3.428,0,0,0-5.586,3.218c.009.053.019.106.03.16C609.907,1106.318,630.832,1126.4,641.089,1142.948Z" transform="translate(-588.837 -1096.743)" fill="#c5ddff" opacity="0.5"/>
      <path id="Path_25437" data-name="Path 25437" d="M577.611,1172.065s-21.361-35.447-50.383-48.075a3.637,3.637,0,0,0-4.729,1.68c-.544,1.133-.611,2.781.568,5.155C526.208,1137.156,559.159,1154.98,577.611,1172.065Z" transform="translate(-522.123 -1117.482)" fill="#c5ddff" opacity="0.5"/>
    </g>
    <path id="Path_25438" data-name="Path 25438" d="M1274.678,575.476l-.09,260.005a15.465,15.465,0,0,1-15.468,15.461L1123.2,850.9a15.465,15.465,0,0,1-15.46-15.471l.089-260.005a15.464,15.464,0,0,1,15.471-15.458l135.917.047A15.464,15.464,0,0,1,1274.678,575.476Z" transform="translate(-674.876 -324.977)" fill="#c2cfff"/>
    <path id="Path_25439" data-name="Path 25439" d="M1252.623,846.386l-135.917-.047a17.426,17.426,0,0,1-17.4-17.412l.089-260.005a17.426,17.426,0,0,1,17.412-17.4l135.917.047a17.426,17.426,0,0,1,17.4,17.412l-.089,260.005A17.426,17.426,0,0,1,1252.623,846.386ZM1116.805,555.4a13.539,13.539,0,0,0-13.529,13.519l-.09,260.005a13.54,13.54,0,0,0,13.519,13.529l135.917.047a13.539,13.539,0,0,0,13.528-13.519l.09-260.005a13.539,13.539,0,0,0-13.519-13.529Z" transform="translate(-668.38 -318.479)" fill="#163560"/>
    <g id="Group_20188" data-name="Group 20188" transform="translate(444.272 246.92)">
      <path id="Path_25440" data-name="Path 25440" d="M1203.013,663.379l-2.286,1.639-2.3-1.623a2.813,2.813,0,0,1,4.582-.016Z" transform="translate(-1188.967 -650.615)" fill="#fff"/>
      <g id="Group_20185" data-name="Group 20185" transform="translate(6.202 7.596)">
        <path id="Path_25441" data-name="Path 25441" d="M1189.819,644.841a6.79,6.79,0,0,0-5.56,2.887l1.45,1.019a5.023,5.023,0,0,1,8.193-.027l1.444-1.036A6.8,6.8,0,0,0,1189.819,644.841Z" transform="translate(-1184.259 -644.841)" fill="#fff"/>
      </g>
      <g id="Group_20186" data-name="Group 20186" transform="translate(0 0)">
        <path id="Path_25442" data-name="Path 25442" d="M1169.07,611.833a14.369,14.369,0,0,0-11.765,6.106l1.45,1.019a12.614,12.614,0,0,1,20.572-.07l1.439-1.036A14.372,14.372,0,0,0,1169.07,611.833Z" transform="translate(-1157.305 -611.833)" fill="#fff"/>
      </g>
      <g id="Group_20187" data-name="Group 20187" transform="translate(3.373 4.156)">
        <path id="Path_25443" data-name="Path 25443" d="M1180.355,629.894a10.279,10.279,0,0,0-8.39,4.331l1.45,1.019a8.522,8.522,0,0,1,13.841-.049l1.439-1.03A10.277,10.277,0,0,0,1180.355,629.894Z" transform="translate(-1171.965 -629.894)" fill="#fff"/>
      </g>
    </g>
    <g id="Group_20189" data-name="Group 20189" transform="translate(409.262 172.246)">
      <path id="Path_25444" data-name="Path 25444" d="M1265.016,424.537a38.873,38.873,0,0,0-22.717-2.146s14.647-1,23.332,8.3c0,0,6.074-9.314,16.114-11.45C1281.745,419.237,1274.264,418.345,1265.016,424.537Z" transform="translate(-1187.731 -388.847)" fill="#9fc1f4"/>
      <path id="Path_25445" data-name="Path 25445" d="M1160.888,409.329a30.066,30.066,0,0,0-17.56-1.763s11.333-.707,18.008,6.521c0,0,4.74-7.176,12.514-8.782C1173.85,405.306,1168.068,404.582,1160.888,409.329Z" transform="translate(-1111.534 -378.126)" fill="#9fc1f4"/>
      <path id="Path_25446" data-name="Path 25446" d="M1058.823,394.2a27.372,27.372,0,0,0-16.04-.927s10.281-1.08,16.631,5.238c0,0,4.035-6.71,11.045-8.47C1070.459,390.041,1065.171,389.606,1058.823,394.2Z" transform="translate(-1034.126 -366.396)" fill="#9fc1f4"/>
      <path id="Path_25447" data-name="Path 25447" d="M1016.038,365.326a18.537,18.537,0,0,0-10.875.387s6.865-1.377,11.545,2.483c0,0,2.3-4.779,6.913-6.409C1023.622,361.787,1020.029,361.827,1016.038,365.326Z" transform="translate(-1005.164 -344.652)" fill="#9fc1f4"/>
      <path id="Path_25448" data-name="Path 25448" d="M1231.055,290.462a18.538,18.538,0,0,0-10.88-.181s6.927-1.017,11.4,3.082c0,0,2.543-4.653,7.238-6.039C1238.813,287.324,1235.223,287.176,1231.055,290.462Z" transform="translate(-1170.698 -287.323)" fill="#9fc1f4"/>
      <path id="Path_25449" data-name="Path 25449" d="M1319.461,362.632a27.007,27.007,0,0,0-15.751-1.793s10.188-.5,16.1,6.073c0,0,4.343-6.389,11.345-7.739C1331.153,359.173,1325.967,358.454,1319.461,362.632Z" transform="translate(-1235.01 -342.603)" fill="#9fc1f4"/>
      <path id="Path_25450" data-name="Path 25450" d="M1281.941,315.864a24.97,24.97,0,0,0-14.615-1.107s9.395-.817,15.083,5.049c0,0,3.789-6.054,10.212-7.546C1292.621,312.26,1287.806,311.777,1281.941,315.864Z" transform="translate(-1206.999 -306.508)" fill="#9fc1f4"/>
    </g>
    <g id="Group_20190" data-name="Group 20190" transform="translate(662.743 258.448)">
      <path id="Path_25451" data-name="Path 25451" d="M2106.708,682.576c0,11.4,19.2,29.624,19.2,29.624s19.2-18.224,19.2-29.624-8.595-20.646-19.2-20.646S2106.708,671.175,2106.708,682.576Zm7.886-1.211a11.312,11.312,0,1,1,11.313,11.312A11.332,11.332,0,0,1,2114.594,681.365Z" transform="translate(-2106.708 -661.93)" fill="#f78e48"/>
    </g>
    <g id="Group_20191" data-name="Group 20191" transform="translate(597.187 186.698)">
      <path id="Path_25452" data-name="Path 25452" d="M1821.823,369.958c0,10.951,18.44,28.455,18.44,28.455s18.441-17.5,18.441-28.455-8.256-19.831-18.441-19.831S1821.823,359.007,1821.823,369.958Zm7.575-1.163a10.866,10.866,0,1,1,10.866,10.866A10.885,10.885,0,0,1,1829.4,368.795Z" transform="translate(-1821.823 -350.127)" fill="#f78e48"/>
    </g>
    <g id="Group_20193" data-name="Group 20193" transform="translate(656.564 421.23)">
      <path id="Rectangle_28274" data-name="Rectangle 28274" d="M0,0H60.689a0,0,0,0,1,0,0V.672a8.257,8.257,0,0,1-8.257,8.257H8.929A8.929,8.929,0,0,1,0,0V0A0,0,0,0,1,0,0Z" transform="translate(2.083 90.235)" fill="#163560"/>
      <path id="Path_25453" data-name="Path 25453" d="M2144.712,1397.274V1469.7a11.524,11.524,0,0,1-.282,2.543h-8.495a6.669,6.669,0,0,0-6.666,6.672v2.258h-33.281v-2.258a6.659,6.659,0,0,0-6.665-6.672h-9.183a11.554,11.554,0,0,1-.283-2.543v-72.428a11.466,11.466,0,0,1,11.462-11.472h41.93A11.466,11.466,0,0,1,2144.712,1397.274Z" transform="translate(-2079.858 -1382.011)" fill="#f78248"/>
      <g id="Group_20192" data-name="Group 20192" transform="translate(18.495)">
        <path id="Path_25454" data-name="Path 25454" d="M2186.373,1373.079c-15.02-5.921-25.5-.094-25.6-.034l-.542-.943a23.824,23.824,0,0,1,7.417-2.352,35.937,35.937,0,0,1,19.124,2.317Z" transform="translate(-2160.23 -1369.326)" fill="#163560"/>
      </g>
      <rect id="Rectangle_28275" data-name="Rectangle 28275" width="4.393" height="5.983" transform="translate(6.182 95.811)" fill="#163560"/>
      <path id="Path_25455" data-name="Path 25455" d="M2102.685,1805.166a3.125,3.125,0,1,1,3.125,3.128A3.127,3.127,0,0,1,2102.685,1805.166Z" transform="translate(-2097.432 -1702.465)" fill="#1f4777"/>
      <path id="Path_25456" data-name="Path 25456" d="M2108.022,1809.278a1.9,1.9,0,1,1,1.9,1.9A1.9,1.9,0,0,1,2108.022,1809.278Z" transform="translate(-2101.541 -1706.577)" fill="#163560"/>
      <rect id="Rectangle_28276" data-name="Rectangle 28276" width="4.393" height="5.983" transform="translate(51.359 95.811)" fill="#163560"/>
      <path id="Path_25457" data-name="Path 25457" d="M2299.012,1805.166a3.125,3.125,0,1,1,3.125,3.128A3.126,3.126,0,0,1,2299.012,1805.166Z" transform="translate(-2248.582 -1702.465)" fill="#1f4777"/>
      <path id="Path_25458" data-name="Path 25458" d="M2304.348,1809.278a1.9,1.9,0,1,1,1.9,1.9A1.9,1.9,0,0,1,2304.348,1809.278Z" transform="translate(-2252.689 -1706.577)" fill="#163560"/>
      <path id="Path_25459" data-name="Path 25459" d="M2131.341,1385.8v87.542a6.66,6.66,0,0,0-1.671-.794V1385.8Z" transform="translate(-2118.207 -1382.011)" fill="#e06832"/>
      <rect id="Rectangle_28277" data-name="Rectangle 28277" width="1.671" height="95.373" transform="translate(24.838 3.791)" fill="#e06832"/>
      <rect id="Rectangle_28278" data-name="Rectangle 28278" width="1.671" height="95.373" transform="translate(37.319 3.791)" fill="#e06832"/>
      <path id="Path_25460" data-name="Path 25460" d="M2302.384,1385.8v87.491a6.585,6.585,0,0,0-1.671,1.52V1385.8Z" transform="translate(-2249.891 -1382.011)" fill="#e06832"/>
    </g>
    <g id="Group_20195" data-name="Group 20195" transform="translate(613.703 332.673)">
      <path id="Path_25461" data-name="Path 25461" d="M1920.716,1208.227c0-.125,1.829-3.907,1.247-4.2s-1.624-.247-1.745.415A23.109,23.109,0,0,0,1920.716,1208.227Z" transform="translate(-1914.08 -1153.377)" fill="#ffb27d"/>
      <path id="Path_25462" data-name="Path 25462" d="M1900.924,1199.722c0-.371-.429-6.033-1.383-7.16s-2.905-2.73-3.519-2.681-3.012,3.236-2.291,5.679,3.764,5.747,3.764,5.747Z" transform="translate(-1893.598 -1142.616)" fill="#ffb27d"/>
      <g id="Group_20194" data-name="Group 20194" transform="translate(0.66 38.961)">
        <path id="Path_25463" data-name="Path 25463" d="M1910.521,1165.082l-5.56,1.666a.349.349,0,0,1-.435-.234l-3.178-10.6a.349.349,0,0,1,.234-.434l5.56-1.667a.348.348,0,0,1,.434.234l3.178,10.6A.349.349,0,0,1,1910.521,1165.082Z" transform="translate(-1900.213 -1153.796)" fill="#f1a34f"/>
        <path id="Path_25464" data-name="Path 25464" d="M1905.328,1166.925l-5.043,1.512a.619.619,0,0,1-.77-.415l-3.023-10.085a.618.618,0,0,1,.415-.77l5.043-1.512a.619.619,0,0,1,.77.415l3.022,10.085A.618.618,0,0,1,1905.328,1166.925Z" transform="translate(-1896.466 -1155.207)" fill="#d86713"/>
      </g>
      <path id="Path_25465" data-name="Path 25465" d="M1901.642,1180.393s2.315-3.563,2.881-3.364c.808.283-2.1,4.8-2.1,4.8s2.154-3.378,2.49-3.124c.767.579-.454,2.7-1.664,4.328,0,0,2.166-1.984,2.237-1.626.247,1.251-2.378,4.283-2.378,4.283l-1.467-3.351Z" transform="translate(-1899.791 -1132.716)" fill="#ffb27d"/>
      <path id="Path_25466" data-name="Path 25466" d="M1894.094,1178.647c.112-.436.677-8.943.919-8.137s.818,5.268.818,5.268Z" transform="translate(-1893.979 -1127.662)" fill="#ffb27d"/>
      <path id="Path_25467" data-name="Path 25467" d="M1942.922,1154.988s-.243,9.25-2.91,16.715c-2.107,5.9-5.727,10.677-11.938,8.911q-.953-.271-1.846-.583l-.008,0c-12.617-4.4-16.7-14.455-16.7-14.455.94-1.549,3.662-2.12,3.662-2.12,2.541.137,13.706,4.878,14.419,5.022,2.582.519,4.669-13.673,6.347-18.589s8.547-7.116,8.547-7.116Z" transform="translate(-1905.857 -1106.346)" fill="#739af0"/>
      <path id="Path_25468" data-name="Path 25468" d="M1996.151,1239.513l-.243,6.665c-2.107,5.9-5.727,10.677-11.938,8.911q-.953-.271-1.846-.583c.2.026,4,.54,5.591-1.051,1.634-1.637,1.464-7.06,4.475-10.675S1996.151,1239.513,1996.151,1239.513Z" transform="translate(-1961.753 -1180.82)" fill="#5283db"/>
      <path id="Path_25469" data-name="Path 25469" d="M2006.954,1764.751s3.105,2.834,2.5,4.847-3.408,3.356-3.787,5.817-1.893,3.8-3.256,3.8h-6.5s-1-1.732,1.42-2.254,3.337-3.414,3.186-6.1a47.261,47.261,0,0,1,.227-6.264l5.15-1.193Z" transform="translate(-1972.209 -1584.168)" fill="#133054"/>
      <path id="Path_25470" data-name="Path 25470" d="M1895.917,1780.612h19.136a1.385,1.385,0,0,0,1.387-1.345,9.773,9.773,0,0,0-.684-4.127c-1.022-2.265-1.667-2.661,2.647-9.251-1.3,1.336-4.8.725-7.747.328-.362.587-5.838,9.047-7.046,9.915C1902.277,1777.09,1896.328,1776.748,1895.917,1780.612Z" transform="translate(-1895.383 -1586.077)" fill="#163560"/>
      <path id="Path_25471" data-name="Path 25471" d="M1965.376,1361.779s-13.875,26.18-17.645,40.6c-2.927,11.19,14.934,54.485,14.934,54.485a14.3,14.3,0,0,0,3.841-1.033,6.233,6.233,0,0,0,3.229-3.384s-1.059-30.956-4.674-45.933c-.811-3.362,3.931-14.206,11.936-20.145s11.338-25.048,6.573-26.339S1965.376,1361.779,1965.376,1361.779Z" transform="translate(-1935.025 -1273.364)" fill="#163560"/>
      <path id="Path_25472" data-name="Path 25472" d="M1975.229,1336.407s-14.586,53.469-19.01,65.475-11.442,37.491-11.442,37.491a18.49,18.49,0,0,0,10.118,1.1s21.328-31.245,22.257-45.056c.429-6.383,21.883-31.688,19.492-48.189Z" transform="translate(-1933 -1255.425)" fill="#1c468a"/>
      <path id="Path_25473" data-name="Path 25473" d="M2046.31,1197.988a25.39,25.39,0,0,1-8.591,2.025h-.006c-6.282.527-15.692-.4-27.152-6.778,0,0-3.2-2.634.731-13.835,2.972-8.48,4.421-26.36,8.049-42.653,0,0,11.77-3.692,21.213-.5,7.215,2.44,6.5,13.513,7.829,25.042q.186,1.615.434,3.233C2050.788,1177.142,2046.31,1197.988,2046.31,1197.988Z" transform="translate(-1982.703 -1100.323)" fill="#739af0"/>
      <path id="Path_25474" data-name="Path 25474" d="M2034.787,1010.269s8.033-13.076,14.254-6.347c0,0,4.067,1.039,6.4,7.371,2.377,6.46-1.325,12.165-3.8,11.243-1.586-.591-2.327,2.141-2.327,2.141Z" transform="translate(-2002.297 -997.967)" fill="#233862"/>
      <path id="Path_25475" data-name="Path 25475" d="M2091.377,989.41s.553-5.414,8.464-4.887c0,0-3.741.067-4.544,1.627,0,0,2.72-1.753,4.7-.9s2.825,4.566,2.718,5.748-1.631,4.875-2.965,5.067a6.2,6.2,0,0,1-3.081-.751Z" transform="translate(-2045.865 -984.486)" fill="#233862"/>
      <path id="Path_25476" data-name="Path 25476" d="M2071.232,1104.413a36.477,36.477,0,0,1-2.738-10.384l-.475.167-7.985,2.813s.56,2.56.917,5c.146,1,.25,2.774.318,4.327.07,1.587,1.631,1.737,3.218,1.663C2068.708,1107.8,2071.036,1106.224,2071.232,1104.413Z" transform="translate(-2021.734 -1068.822)" fill="#ffb27d"/>
      <path id="Path_25477" data-name="Path 25477" d="M2060.034,1097.566s.56,2.56.917,5c4.581-.793,6.407-5.339,7.068-7.808Z" transform="translate(-2021.734 -1069.38)" fill="#e8945b"/>
      <path id="Path_25478" data-name="Path 25478" d="M2045.412,1035.821a24.431,24.431,0,0,0,1.971-7.5c.078-2.385-2.349-10.832-10.831-8.343a11.889,11.889,0,0,0-4.614,2.548c-1.7,1.541-4.016,4.674.1,11.757l1.154,2.427Z" transform="translate(-1998.408 -1011.465)" fill="#233862"/>
      <path id="Path_25479" data-name="Path 25479" d="M2036.378,1053.91s10.908-1.389,9.939-8.169-.215-11.526-7.221-10.925-7.986,3.38-8.213,5.722S2033.516,1054.1,2036.378,1053.91Z" transform="translate(-1999.282 -1023.195)" fill="#ffb27d"/>
      <path id="Path_25480" data-name="Path 25480" d="M2044.973,1031.265s4.126,7.523,8.869,8.04,6.55-.995,6.55-.995a13.083,13.083,0,0,1-5.339-7.039S2046.675,1027.156,2044.973,1031.265Z" transform="translate(-2010.139 -1019.096)" fill="#233862"/>
      <path id="Path_25481" data-name="Path 25481" d="M2031.808,1036.243s-1.969,2.1-2.263,3.9-.026,5.393-1.079,5.422c0,0-3.024-5.082-.942-8.5C2029.731,1033.434,2031.808,1036.243,2031.808,1036.243Z" transform="translate(-1996.142 -1023.535)" fill="#233862"/>
      <path id="Path_25482" data-name="Path 25482" d="M2046.959,1033.429s3.323,8.022,9.478,9.858c0,0-6.508-4.285-7.79-9.712S2046.959,1033.429,2046.959,1033.429Z" transform="translate(-2011.668 -1020.392)" fill="#233862"/>
      <path id="Path_25483" data-name="Path 25483" d="M2135.042,1283.116a25.394,25.394,0,0,1-8.591,2.025h-.005a9.62,9.62,0,0,1,.522-11.987c5.03-6.334-.392-18.022,3.481-24.379,2.7-4.423,5.319-3.393,6.667-2.36.124,1.077.266,2.156.434,3.233C2139.519,1262.269,2135.042,1283.116,2135.042,1283.116Z" transform="translate(-2071.434 -1185.45)" fill="#5283db"/>
      <path id="Path_25484" data-name="Path 25484" d="M2244.967,1368.084s.669,1.557,1.6,1.661a19.585,19.585,0,0,1,4.886,1.719c1.236.734,1.153,4.017-.083,4.326s-1.854-2.447-5.717-3.185c-1.31-.25-3.219.655-3.992-2.484Z" transform="translate(-2161.569 -1279.813)" fill="#ffb27d"/>
      <path id="Path_25485" data-name="Path 25485" d="M2137.244,1140.3c11.233,4.132,11.648,24.031,16.656,32.794,5.164,9.038,10.193,20.933,10.193,20.933s-.091.356-2.017.908a8.051,8.051,0,0,1-2.772.223s-10.612-9.6-13.5-13.387-9.682-21.357-9.682-21.357S2132.786,1138.656,2137.244,1140.3Z" transform="translate(-2079.393 -1104.374)" fill="#739af0"/>
      <path id="Path_25486" data-name="Path 25486" d="M2242.869,1380.32a4.253,4.253,0,0,0,1.929,2.419c1.656,1.081,2.985,2.163,3.145,1.493s-.922-1.391-1.179-2.627S2242.869,1380.32,2242.869,1380.32Z" transform="translate(-2162.497 -1289.233)" fill="#ffb27d"/>
    </g>
    <rect id="Rectangle_28279" data-name="Rectangle 28279" width="163.007" height="118.002" transform="translate(434.807 357.493)" fill="#f78e48"/>
    <path id="Path_25487" data-name="Path 25487" d="M1373.405,1700.149v15.919c0,.2,0,.391-.012.583H1291.88c-.008-.193-.012-.388-.012-.583v-15.919c0-7.261,4.687-13.2,10.416-13.2h60.706C1368.718,1686.946,1373.405,1692.887,1373.405,1700.149Z" transform="translate(-816.631 -1192.627)" fill="#f78248"/>
    <g id="Group_20198" data-name="Group 20198" transform="translate(506.316 499.522)">
      <g id="Group_20196" data-name="Group 20196" transform="translate(4.36 5.033)">
        <path id="Path_25488" data-name="Path 25488" d="M1451.126,1741.447l-5.247-4.7,1.474-1.647,3.389,3.034,4.69-6.71,1.812,1.266Z" transform="translate(-1445.879 -1731.428)" fill="#ffe3ca"/>
      </g>
      <g id="Group_20197" data-name="Group 20197">
        <path id="Path_25489" data-name="Path 25489" d="M1436.973,1729.642a10.043,10.043,0,1,1,10.043-10.043A10.054,10.054,0,0,1,1436.973,1729.642Zm0-19.569a9.526,9.526,0,1,0,9.527,9.526A9.538,9.538,0,0,0,1436.973,1710.072Z" transform="translate(-1426.93 -1709.556)" fill="#ffe3ca"/>
      </g>
    </g>
    <path id="Path_25490" data-name="Path 25490" d="M1179.61,710.922s3.775-8.4,12.8-7.471c0,0,13.1-14.008,27.077-1.868,0,0,14.854-3.008,25.855,2.6,7.334,3.742,9.757,7.668,9.757,7.668Z" transform="translate(-730.205 -430.199)" fill="#ebf3fa"/>
    <path id="Path_25491" data-name="Path 25491" d="M1403.351,658.992l.141,0a2.337,2.337,0,0,0,1.545-.6c1.9-1.735,7.681-6.052,13.908-1.093a2.258,2.258,0,0,0,1.733.459c2.405-.351,8.688-.921,13.608,1.715q.2.108.393.216a2.275,2.275,0,0,1-1.16,4.25l-30.1-.391A2.276,2.276,0,0,1,1403.351,658.992Z" transform="translate(-900.783 -398.136)" fill="#ebf3fa"/>
    <g id="Group_20199" data-name="Group 20199" transform="translate(535.282 369.604)">
      <path id="Path_25492" data-name="Path 25492" d="M1595.283,1233.555h-32.357a10.134,10.134,0,0,1-10.122-10.123V1155.1a10.134,10.134,0,0,1,10.122-10.123h32.357a10.134,10.134,0,0,1,10.123,10.123v68.333A10.134,10.134,0,0,1,1595.283,1233.555Zm-32.357-87.545a9.1,9.1,0,0,0-9.09,9.09v68.333a9.1,9.1,0,0,0,9.09,9.09h32.357a9.1,9.1,0,0,0,9.09-9.09V1155.1a9.1,9.1,0,0,0-9.09-9.09Z" transform="translate(-1552.804 -1144.977)" fill="#ffe3ca"/>
    </g>
    <path id="Rectangle_28280" data-name="Rectangle 28280" d="M22.012,0H39.631A22.012,22.012,0,0,1,61.643,22.012v0A22.013,22.013,0,0,1,39.63,44.025H22.012A22.012,22.012,0,0,1,0,22.013v0A22.012,22.012,0,0,1,22.012,0Z" transform="translate(466.412 370.12)" fill="#ffe3ca"/>
    <g id="Group_20200" data-name="Group 20200" transform="translate(465.896 420.891)">
      <path id="Path_25493" data-name="Path 25493" d="M1306.676,1405.144h-48.125a7.284,7.284,0,0,1-7.275-7.276v-22.74a7.284,7.284,0,0,1,7.275-7.276h48.125a7.284,7.284,0,0,1,7.276,7.276v22.74A7.284,7.284,0,0,1,1306.676,1405.144Zm-48.125-36.258a6.25,6.25,0,0,0-6.242,6.243v22.74a6.25,6.25,0,0,0,6.242,6.243h48.125a6.25,6.25,0,0,0,6.243-6.243v-22.74a6.25,6.25,0,0,0-6.243-6.243Z" transform="translate(-1251.276 -1367.853)" fill="#ffe3ca"/>
    </g>
    <g id="Group_20201" data-name="Group 20201" transform="translate(548.131 380.157)">
      <path id="Path_25494" data-name="Path 25494" d="M1608.644,1205.3c0,7.988,13.452,20.757,13.452,20.757s13.452-12.769,13.452-20.757-6.022-14.466-13.452-14.466S1608.644,1197.313,1608.644,1205.3Zm5.525-.848a7.926,7.926,0,1,1,7.926,7.926A7.94,7.94,0,0,1,1614.169,1204.453Z" transform="translate(-1608.644 -1190.836)" fill="#ffe3ca"/>
    </g>
    <path id="Path_25495" data-name="Path 25495" d="M1406.386,1245.431l-.637.006a.266.266,0,0,0-.065.009l-4.883,1.334a.26.26,0,0,1-.179-.016l-6.863-2.642c-.176-.084.886-.6,1.044-.718,1.716-1.249,7.158-4.292,9.2-5.644a.447.447,0,0,0-.145-.808.976.976,0,0,0-.555.033l-10,3.63-1.344-.851a.421.421,0,0,0-.579.13l-.658,1.042a.421.421,0,0,0,.12.573l-1.288.468a.258.258,0,0,1-.189-.005l-6.152-2.624a2.558,2.558,0,0,0-1.721-.1l-.708.208a.874.874,0,0,0-.578,1.122l.081.236a2.73,2.73,0,0,0,1.621,1.671l4.988,1.877a.258.258,0,0,1,.167.236l.045,2.156-.285-.181a.421.421,0,0,0-.579.13l-.659,1.042a.422.422,0,0,0,.131.58l1.444.915.07,3.364a1.376,1.376,0,0,0,.246.759c.2.284.406.6.479.566a68.648,68.648,0,0,0,3.266-7.324c.044-.116,1.024.249,1.14.292l6.8,2.08a.258.258,0,0,1,.164.2l.3,1.984a.989.989,0,0,0,.307.579l.007.006a.257.257,0,0,0,.39-.049l1.581-2.423a.257.257,0,0,1,.207-.117l.731-.023a.258.258,0,0,0,.17-.444l-.178-.171,3.69-2.618A.258.258,0,0,0,1406.386,1245.431Z" transform="translate(-884.609 -846.163)" fill="#f78e48"/>
    <g id="Group_20204" data-name="Group 20204" transform="translate(501.914 429.475)">
      <g id="Group_20202" data-name="Group 20202">
        <path id="Path_25496" data-name="Path 25496" d="M1417.86,1425.28a10.061,10.061,0,1,1,10.062-10.061A10.073,10.073,0,0,1,1417.86,1425.28Zm0-19.021a8.959,8.959,0,1,0,8.959,8.959A8.969,8.969,0,0,0,1417.86,1406.259Z" transform="translate(-1407.799 -1405.157)" fill="#ffe3ca"/>
      </g>
      <g id="Group_20203" data-name="Group 20203" transform="translate(9.446 5.108)">
        <path id="Rectangle_28281" data-name="Rectangle 28281" d="M.418,0h0A.418.418,0,0,1,.837.418V5.886A.418.418,0,0,1,.418,6.3h0A.418.418,0,0,1,0,5.886V.418A.418.418,0,0,1,.418,0Z" transform="translate(0.132)" fill="#ffe3ca"/>
        <path id="Path_25497" data-name="Path 25497" d="M1450.484,1434.055l-.011-.012a.2.2,0,0,1,0-.284l5.594-5.594a.2.2,0,0,1,.284,0l.012.012a.2.2,0,0,1,0,.284l-5.594,5.594A.2.2,0,0,1,1450.484,1434.055Z" transform="translate(-1450.054 -1427.933)" fill="#ffe3ca"/>
        <path id="Path_25498" data-name="Path 25498" d="M1448.85,1451.238a.55.55,0,1,1,.55.55A.55.55,0,0,1,1448.85,1451.238Z" transform="translate(-1448.85 -1445.318)" fill="#ffe3ca"/>
      </g>
    </g>
    <g id="Group_20205" data-name="Group 20205" transform="translate(473.047 427.486)">
      <rect id="Rectangle_28282" data-name="Rectangle 28282" width="22.121" height="2.295" transform="translate(0)" fill="#ffe3ca"/>
      <rect id="Rectangle_28283" data-name="Rectangle 28283" width="22.121" height="2.31" transform="translate(0 5.237)" fill="#ffe3ca"/>
      <rect id="Rectangle_28284" data-name="Rectangle 28284" width="13.264" height="2.31" transform="translate(0 10.49)" fill="#ffe3ca"/>
    </g>
    <g id="Group_20206" data-name="Group 20206" transform="translate(550.522 427.584)">
      <rect id="Rectangle_28285" data-name="Rectangle 28285" width="22.121" height="2.295" transform="translate(0)" fill="#ffe3ca"/>
      <rect id="Rectangle_28286" data-name="Rectangle 28286" width="22.121" height="2.31" transform="translate(0 5.237)" fill="#ffe3ca"/>
      <rect id="Rectangle_28287" data-name="Rectangle 28287" width="13.264" height="2.31" transform="translate(0 10.49)" fill="#ffe3ca"/>
    </g>
    <g id="Group_20207" data-name="Group 20207" transform="translate(474.419 380.246)">
      <rect id="Rectangle_28288" data-name="Rectangle 28288" width="22.121" height="2.295" fill="#f78e48"/>
      <rect id="Rectangle_28289" data-name="Rectangle 28289" width="22.121" height="2.31" transform="translate(0 5.237)" fill="#f78e48"/>
      <rect id="Rectangle_28290" data-name="Rectangle 28290" width="13.264" height="2.31" transform="translate(0 10.49)" fill="#f78e48"/>
    </g>
    <g id="Group_20208" data-name="Group 20208" transform="translate(617.35 154.934)">
      <path id="Path_25499" data-name="Path 25499" d="M1974.037,310.977a.517.517,0,0,1-.514-.469c0-.009-.084-.911-.254-2.508a.516.516,0,0,1,1.027-.109c.171,1.6.255,2.514.256,2.523a.517.517,0,0,1-.467.562Zm-.53-5.01a.516.516,0,0,1-.512-.458c-.086-.755-.183-1.586-.291-2.485a.516.516,0,1,1,1.026-.123c.109.9.206,1.735.292,2.492a.518.518,0,0,1-.514.575Zm-.6-4.973a.517.517,0,0,1-.511-.452q-.15-1.184-.32-2.478a.516.516,0,1,1,1.024-.135q.171,1.3.321,2.484a.516.516,0,0,1-.448.577A.487.487,0,0,1,1972.909,300.994Zm-.654-4.96a.517.517,0,0,1-.511-.446q-.165-1.2-.347-2.473a.516.516,0,1,1,1.022-.146q.182,1.273.348,2.478a.516.516,0,0,1-.442.582A.523.523,0,0,1,1972.255,296.034Zm-.708-4.949a.517.517,0,0,1-.51-.441q-.18-1.21-.374-2.468a.516.516,0,1,1,1.021-.158q.194,1.26.375,2.473a.516.516,0,0,1-.435.587A.531.531,0,0,1,1971.546,291.085Zm-.764-4.939a.516.516,0,0,1-.509-.435q-.194-1.214-.4-2.462a.517.517,0,0,1,1.019-.17q.208,1.25.4,2.469a.516.516,0,0,1-.428.592A.508.508,0,0,1,1970.783,286.146Zm-.82-4.929a.516.516,0,0,1-.508-.429q-.21-1.217-.432-2.457a.516.516,0,1,1,1.017-.182q.223,1.243.433,2.464a.517.517,0,0,1-.421.6A.53.53,0,0,1,1969.963,281.217Zm-.88-4.918a.517.517,0,0,1-.507-.422q-.226-1.217-.463-2.451a.517.517,0,0,1,1.014-.2q.238,1.236.465,2.458a.517.517,0,0,1-.509.611Zm-.945-4.905a.517.517,0,0,1-.506-.415q-.243-1.217-.5-2.444a.516.516,0,1,1,1.011-.21q.255,1.23.5,2.451a.517.517,0,0,1-.507.618Zm-1.015-4.891a.517.517,0,0,1-.5-.408q-.261-1.213-.534-2.429a.516.516,0,1,1,1.008-.226q.273,1.22.536,2.437a.517.517,0,0,1-.4.614A.524.524,0,0,1,1967.123,266.5Zm-1.092-4.868a.517.517,0,0,1-.5-.4q-.283-1.217-.578-2.431a.516.516,0,0,1,1-.244q.3,1.219.581,2.44a.516.516,0,0,1-.5.634Zm-1.182-4.86a.517.517,0,0,1-.5-.39q-.307-1.21-.625-2.412a.517.517,0,0,1,1-.264q.32,1.207.628,2.423a.517.517,0,0,1-.5.643Zm-1.279-4.828a.517.517,0,0,1-.5-.379q-.333-1.2-.679-2.4a.516.516,0,1,1,.992-.288q.347,1.2.682,2.409a.516.516,0,0,1-.5.654Zm-1.392-4.8a.517.517,0,0,1-.494-.366c-.243-.8-.493-1.6-.743-2.376a.517.517,0,0,1,.984-.315c.251.785.5,1.589.747,2.39a.517.517,0,0,1-.494.667Zm-1.526-4.756a.517.517,0,0,1-.489-.351c-.267-.791-.543-1.581-.818-2.35a.517.517,0,0,1,.973-.348c.277.774.554,1.571.824,2.367a.517.517,0,0,1-.489.682Zm-50.69-1.662a.517.517,0,0,1-.48-.7q.267-.683.536-1.345a.516.516,0,1,1,.957.388q-.266.657-.531,1.334A.517.517,0,0,1,1909.963,240.735Zm49-3.039a.517.517,0,0,1-.483-.333c-.3-.786-.605-1.565-.909-2.313a.516.516,0,1,1,.957-.389c.307.756.616,1.541.918,2.335a.517.517,0,0,1-.483.7Zm-47.512-.6a.516.516,0,0,1-.474-.72c.335-.78.677-1.55,1.015-2.29a.516.516,0,1,1,.939.43c-.335.732-.673,1.495-1.005,2.267A.516.516,0,0,1,1911.456,237.094Zm45.63-4.023a.517.517,0,0,1-.474-.31c-.339-.776-.683-1.537-1.024-2.261a.516.516,0,1,1,.934-.44c.345.733.694,1.5,1.036,2.288a.517.517,0,0,1-.473.723Zm-43.552-.507a.511.511,0,0,1-.227-.053.516.516,0,0,1-.236-.691c.376-.765.76-1.517,1.14-2.234a.516.516,0,1,1,.912.484c-.376.708-.754,1.45-1.125,2.206A.517.517,0,0,1,1913.534,232.563Zm41.422-4.008a.516.516,0,0,1-.46-.281c-.384-.75-.778-1.484-1.171-2.181a.517.517,0,0,1,.9-.507c.4.709.8,1.455,1.189,2.217a.516.516,0,0,1-.459.752Zm-39.084-.393a.511.511,0,0,1-.257-.069.516.516,0,0,1-.19-.705c.428-.741.865-1.465,1.3-2.151a.516.516,0,1,1,.872.552c-.427.674-.856,1.386-1.277,2.115A.516.516,0,0,1,1915.872,228.162Zm36.63-3.952a.516.516,0,0,1-.438-.242c-.449-.716-.908-1.406-1.366-2.051a.516.516,0,1,1,.842-.6c.469.661.94,1.368,1.4,2.1a.517.517,0,0,1-.437.791Zm-33.959-.254a.517.517,0,0,1-.422-.814c.5-.706,1-1.385,1.509-2.02a.516.516,0,0,1,.809.643c-.492.619-.987,1.282-1.473,1.972A.517.517,0,0,1,1918.544,223.957Zm31.066-3.8a.516.516,0,0,1-.4-.188c-.537-.653-1.085-1.264-1.63-1.818a.516.516,0,1,1,.736-.725c.567.576,1.136,1.21,1.693,1.887a.516.516,0,0,1-.4.844Zm-27.959-.089a.516.516,0,0,1-.381-.865c.586-.64,1.187-1.244,1.787-1.8a.517.517,0,0,1,.7.76c-.579.533-1.159,1.117-1.725,1.735A.516.516,0,0,1,1921.65,220.064Zm3.67-3.361a.517.517,0,0,1-.31-.93,20.894,20.894,0,0,1,2.132-1.4.516.516,0,0,1,.513.9,19.886,19.886,0,0,0-2.026,1.334A.515.515,0,0,1,1925.32,216.7Zm20.791-.074a.514.514,0,0,1-.324-.114,16.5,16.5,0,0,0-1.968-1.371.517.517,0,0,1,.525-.89,17.527,17.527,0,0,1,2.092,1.458.516.516,0,0,1-.325.918Zm-16.471-2.377a.516.516,0,0,1-.191-1,16.618,16.618,0,0,1,2.454-.76.516.516,0,1,1,.228,1.007,15.625,15.625,0,0,0-2.3.713A.519.519,0,0,1,1929.641,214.252Zm12.207-.1a.512.512,0,0,1-.177-.032,11.443,11.443,0,0,0-1.161-.355c-.4-.1-.789-.185-1.169-.26a.516.516,0,1,1,.2-1.013c.4.078.806.169,1.217.271a12.529,12.529,0,0,1,1.267.387.517.517,0,0,1-.177,1Zm-4.875-.978h-.04a17.017,17.017,0,0,0-2.417-.016.516.516,0,1,1-.069-1.031,18.056,18.056,0,0,1,2.564.016.516.516,0,0,1-.038,1.031Z" transform="translate(-1909.447 -212.09)" fill="#f78e48"/>
    </g>
    <path id="Path_25500" data-name="Path 25500" d="M819.974,1830.541l-588.107-.2a.719.719,0,0,1-.717-.717v-.367a.719.719,0,0,1,.717-.717l588.107.2a.719.719,0,0,1,.717.717v.367A.719.719,0,0,1,819.974,1830.541Z" transform="translate(0 -1301.637)" fill="#2e3552"/>
    <path id="Path_25501" data-name="Path 25501" d="M1116.244,866.571s7.037-.487,8.571,5.034c0,0,5.419-11.041,16.866-10.131s13.561,7.642,13.561,7.642,6.558-2.253,12,.751a9.552,9.552,0,0,1,5.1,8.511s4.993-7.009,15.03-4.506c0,0-2-10.134,10.068-12.451s17.2,1.688,17.2,1.688,13.67-8.8,25.771,2.232c0,0,8.867-1.722,13.2,3.74,0,0,8.883-10.734,25.594-8.849V913.3H1116.175Z" transform="translate(-681.368 -555.805)" fill="#d7e2ff"/>
    <path id="Path_25502" data-name="Path 25502" d="M1116.242,1002.234s11.835-2.994,22.4,3.978c0,0,2.575-3.068,9.282-2.309a10.365,10.365,0,0,1,8.553,6.954s23.464-7.749,35.082,11.62h-75.383Z" transform="translate(-681.368 -664.985)" fill="#ebf3fa"/>
    <path id="Path_25503" data-name="Path 25503" d="M1506.517,948.45s.6-11.876,13-14.716c0,0-6.422-2.841-3.185-9.9s11.1-7.574,11.1-7.574.822-12.769,23.117-10.564c6.26.619,12.886,4.367,13.922,10.909a8.457,8.457,0,0,1,7.426-3.71s.62-7.261,7.822-7.2V948.45Z" transform="translate(-981.887 -590.956)" fill="#ebf3fa"/>
    <g id="Group_20211" data-name="Group 20211" transform="translate(383.917 253.598)">
      <path id="Path_25504" data-name="Path 25504" d="M1639.885,647.868l-9.358,32.42-.3-.036-31.973-3.884s14.809-3.08,16.347-4.857c1.45-1.675,16.826-21.541,21.324-23.665a1.511,1.511,0,0,1,.7-.182Z" transform="translate(-1436.435 -646.096)" fill="#739af0"/>
      <path id="Path_25505" data-name="Path 25505" d="M1630.233,680.865l-31.973-3.884s14.809-3.08,16.347-4.857c1.45-1.675,16.826-21.541,21.324-23.665-3.982,5.783-13.211,19.679-12.82,23.72C1623.484,676.027,1627.986,679.406,1630.233,680.865Z" transform="translate(-1436.435 -646.709)" fill="#2b478b"/>
      <path id="Path_25506" data-name="Path 25506" d="M1267.743,759.274c-1.091.373-4.353,1.4-8.828,2.7-12.867,3.742-35.755,9.751-45.855,9.008-9.06-.665-56.977-4.324-90.122-7.229,8.02-14.085,18.019-21.866,27.171-26.132,38.616,3.164,89.117,7.439,95.543,8.681,10.57,2.043,24.592,3.7,24.592,3.7s.1.429.186,1.109C1270.727,753.328,1270.977,758.161,1267.743,759.274Z" transform="translate(-1070.491 -715.357)" fill="#e58638"/>
      <path id="Path_25507" data-name="Path 25507" d="M1095.125,740.92c0,.079,0,.163,0,.244-.028,1.758-.386,3.719-1.628,4.848-.042.039-.086.077-.13.114a3.422,3.422,0,0,1-.277.2h0v0l-.149.093c-.049.028-.1.058-.153.086h0c-.051.028-.1.053-.16.079s-.111.051-.169.074-.116.044-.175.065a.528.528,0,0,1-.053.016v0a.5.5,0,0,0-.056.019c-.018.007-.039.011-.058.018v0c-.021,0-.042.012-.062.018v0a.341.341,0,0,0-.065.021l-.067.021h0v0c-.023.007-.047.014-.07.023s-.049.016-.074.023h0l-.077.025c-.026.009-.053.016-.079.026l-.17.056h0l-.086.028h0v0l-.091.028-.068.021c-.242.079-.511.165-.806.258l-.167.051c-.774.244-1.712.534-2.792.86l-.339.1q-.282.087-.578.174c-.042.012-.084.026-.128.037l-.181.056c-.06.019-.121.035-.183.054l-.186.056-.188.056-.189.056c-.065.019-.13.04-.193.058l-.193.056s0,0,0,0l-.2.056c-.047.014-.093.028-.142.044a.249.249,0,0,0-.056.016l-.2.056q-.5.15-1.027.3c-.2.061-.4.118-.611.179l-.534.153-.406.118-1.635.465-.337.1c-.195.056-.39.109-.587.165-.177.051-.355.1-.537.151l-.6.167c-6.688,1.856-14.795,3.938-22.312,5.45-.262.054-.527.1-.79.158l-.39.077c-.263.051-.523.1-.783.149q-1.167.223-2.309.423c-.253.044-.5.088-.755.13l-.374.063-.744.123c-.246.04-.492.077-.736.114s-.483.074-.724.109-.481.072-.715.1l-.706.1-.7.09-.344.042c-.455.056-.906.107-1.345.153-.112.012-.221.023-.33.033l-.648.063c-.427.037-.846.072-1.255.1-.307.023-.609.04-.9.053-.2.012-.393.019-.585.026-.288.012-.572.019-.846.021-.369.007-.727,0-1.071,0-.174,0-.344-.009-.511-.016-.083,0-.165,0-.249-.012-.165-.007-.325-.016-.483-.028l-.177-.014-.042,0c-.037,0-.077-.007-.116-.009-.148-.012-.3-.021-.472-.035l-.135-.009-.169-.014c-.086,0-.177-.011-.267-.018l-.146-.012c-.049,0-.1-.007-.149-.012-.1-.007-.2-.014-.309-.023s-.211-.016-.321-.023l-.167-.012-.421-.032c-.067,0-.135-.009-.2-.016-.142-.009-.288-.021-.437-.032-.063,0-.125-.007-.191-.014l-.562-.042-1.7-.128-.223-.018c-.149-.009-.3-.021-.455-.032-.228-.019-.462-.035-.7-.054-.1-.009-.2-.016-.29-.023l-.685-.051c-.083-.007-.17-.014-.253-.019-.158-.014-.318-.026-.481-.037l-.53-.042-.283-.021-.265-.021c-.142-.009-.283-.021-.427-.032l-2.574-.2c-.13-.012-.258-.021-.39-.03-.2-.016-.4-.032-.6-.047-.464-.037-.941-.072-1.422-.109-.037,0-.074-.007-.111-.009l-1.268-.1a.566.566,0,0,0-.06,0l-8.209-.636-.441-.035q-.881-.066-1.782-.137l-1.133-.091a.575.575,0,0,1-.063,0c-.432-.032-.869-.067-1.308-.1-.054,0-.107-.009-.163-.012-.769-.06-1.549-.123-2.337-.183l-.606-.049-.186-.014c-.688-.053-1.385-.109-2.084-.165-.307-.023-.611-.046-.917-.072-.2-.016-.407-.032-.611-.046-.414-.035-.827-.067-1.243-.1q-.934-.073-1.875-.149c-.056,0-.111-.009-.167-.012-.26-.023-.518-.042-.776-.063l-.056,0c-.771-.06-1.545-.123-2.325-.184l-.065-.007-.242-.019c-.458-.035-.918-.072-1.378-.109-.346-.028-.695-.053-1.043-.084-.216-.016-.432-.032-.648-.051-.9-.07-1.81-.144-2.72-.216l-.023,0q-2.261-.185-4.548-.367c-.209-.016-.416-.032-.625-.051l-.044,0c-.669-.053-1.336-.109-2.007-.162-.207-.016-.411-.033-.618-.051l-1.728-.139q-1.756-.146-3.515-.288l-2.221-.181c-.465-.039-.929-.079-1.391-.116l-3.313-.272-.158-.014c-.69-.058-1.382-.114-2.07-.172l-2.934-.246-1.169-.1-.355-.03c-.787-.065-1.568-.132-2.346-.2l-.344-.028-1.6-.137q-3.37-.286-6.609-.567c-.26-.021-.518-.044-.778-.067-.158-.014-.316-.028-.471-.039-.211-.021-.42-.037-.632-.056-.418-.037-.836-.072-1.25-.109-8.035-.7-15.2-1.366-20.737-1.928-.565-.056-1.113-.111-1.64-.167-1.315-.137-2.518-.267-3.6-.393-3.066-.346-5.155-.637-5.984-.846a61.953,61.953,0,0,1-16.521-7.182c-2.76-1.861-4.467-3.763-3.833-5.331a8.266,8.266,0,0,1,4.355-4.086c1.559-.771,3.152-1.3,4.2-1.9.06-.035.119-.07.177-.1a3.637,3.637,0,0,0,.506-.376c.023-.023.047-.042.074-.07a26.183,26.183,0,0,1,2.042-1.712,24.812,24.812,0,0,1,2.334-1.552.062.062,0,0,0,.014-.009c4-2.344,10.7-4.825,20.9-4.088,0,0,19.968,1.577,44.879,3.619h0c2.483.2,5.015.411,7.58.623h0q1.282.1,2.576.211,1.941.161,3.9.323h0l6.567.546c.439.037.88.074,1.322.109q1.321.112,2.641.221l5.292.446q1.317.112,2.634.221c3.136.265,6.253.53,9.329.795h.014c8.88.762,17.4,1.505,24.953,2.19h0c.4.035.8.072,1.189.107,4.435.4,8.516.785,12.114,1.134,1.721.169,3.333.33,4.82.481,5.385.548,9.141.989,10.606,1.273,3.808.736,8.063,1.424,11.947,2,.32.049.639.1.953.139a.352.352,0,0,0,.048.007c.481.072.955.139,1.422.207l.042.007,1.579.223c.751.1,1.47.2,2.151.295l.862.116c3.354.446,5.587.711,5.587.711s.014.061.035.172c0,.009,0,.019.007.028,0,.03.012.063.019.1.011.072.028.156.042.251.021.125.044.269.065.432a0,0,0,0,0,0,0c0,.039.011.081.016.123.018.135.037.279.053.434.012.107.023.221.035.335,0,.063.011.128.016.193s.012.144.016.216q.011.157.021.32c0,.044,0,.088,0,.133,0,.077.007.156.009.232,0,.042,0,.081,0,.121,0,.079,0,.16,0,.239C1095.122,740.837,1095.122,740.879,1095.125,740.92Z" transform="translate(-895.022 -702.813)" fill="#d7e2ff"/>
      <path id="Path_25508" data-name="Path 25508" d="M1426.28,765.159c0,.079,0,.163,0,.244-.028,1.758-.386,3.719-1.628,4.848-.042.039-.086.077-.13.114a3.433,3.433,0,0,1-.277.2h0v0l-.149.093c-.049.028-.1.058-.153.086h0c-.051.028-.1.053-.16.079s-.111.051-.169.074-.116.044-.174.065a.526.526,0,0,1-.054.016v0a.488.488,0,0,0-.056.019c-.018.007-.039.012-.058.018v0a.6.6,0,0,0-.063.018v0a.348.348,0,0,0-.065.021l-.067.021h0v0c-.023.007-.047.014-.07.023s-.049.016-.074.023h0l-.077.025c-.026.009-.053.016-.079.026l-.17.056h0l-.086.028h0v0l-.091.028-.067.021c-.242.079-.511.165-.806.258l-.167.051c-.774.244-1.712.534-2.792.859l-.339.1q-.282.087-.578.174c-.042.012-.084.026-.128.037l-.181.056-.184.054-.186.056-.188.056-.188.056-.193.058-.193.056a0,0,0,0,0,0,0l-.2.056c-.047.014-.093.028-.142.044a.262.262,0,0,0-.056.016l-.2.056q-.5.15-1.027.3c-.2.061-.4.119-.611.179l-.534.153-.406.118-1.635.465-.337.1c-.195.056-.39.109-.587.165-.177.051-.356.1-.537.151l-.6.167c-6.688,1.856-14.8,3.938-22.312,5.45-.262.054-.528.1-.79.158l-.39.077c-.263.051-.523.1-.783.149q-1.167.223-2.309.423c-.253.044-.5.088-.755.13l-.374.063-.744.123c-.246.04-.492.077-.736.114s-.483.074-.724.109-.481.072-.716.1l-.706.1-.7.09-.344.042c-.455.056-.906.107-1.345.153-.111.012-.221.023-.33.033l-.648.063c-.428.037-.846.072-1.254.1-.307.023-.609.04-.9.053-.2.012-.393.019-.585.026-.288.012-.572.019-.846.021-.369.007-.727,0-1.071,0-.174,0-.344-.009-.511-.016-.084,0-.165,0-.249-.012-.165-.007-.325-.016-.483-.028l-.177-.014-.042,0c-.037,0-.077-.007-.116-.009-.148-.012-.3-.021-.471-.035l-.135-.009-.169-.014c-.086,0-.177-.011-.267-.018l-.146-.012c-.049,0-.1-.007-.149-.012-.1-.007-.2-.014-.309-.023s-.211-.016-.321-.023l-.167-.012-.42-.033c-.067,0-.135-.009-.2-.016-.142-.009-.288-.021-.437-.032-.063,0-.125-.007-.191-.014l-.562-.042-1.7-.128-.223-.018c-.149-.009-.3-.021-.455-.032-.228-.019-.462-.035-.7-.054-.1-.009-.2-.016-.291-.023l-.685-.051c-.083-.007-.169-.014-.253-.019-.158-.014-.318-.026-.481-.037l-.53-.042-.283-.021-.265-.021c-.142-.009-.283-.021-.427-.032l-2.574-.2c-.13-.012-.258-.021-.39-.03-.2-.016-.4-.032-.6-.046-.465-.037-.941-.072-1.422-.109-.037,0-.074-.007-.111-.009l-1.269-.1a.549.549,0,0,0-.06,0l-8.209-.636-.441-.035q-.882-.066-1.782-.137l-1.133-.091a.589.589,0,0,1-.063,0q-.648-.049-1.308-.1c-.054,0-.107-.009-.163-.012-.769-.06-1.549-.123-2.337-.183l-.606-.049-.186-.014-2.084-.165c-.307-.023-.611-.047-.917-.072-.2-.016-.406-.032-.611-.046-.413-.035-.827-.067-1.243-.1q-.934-.073-1.875-.149c-.056,0-.111-.009-.167-.012-.26-.023-.518-.042-.776-.062l-.056,0c-.771-.061-1.545-.123-2.325-.184l-.065-.007-.241-.019a49.719,49.719,0,0,0,22.481-26.491h.014c8.881.762,17.4,1.505,24.953,2.19h0c.4.035.8.072,1.189.107,4.435.4,8.516.785,12.114,1.134,1.721.169,3.334.33,4.82.481,5.385.548,9.141.99,10.606,1.273,3.807.736,8.063,1.424,11.947,2,.321.049.639.1.953.139a.359.359,0,0,0,.048.007c.481.072.955.139,1.422.207l.042.007,1.579.223c.75.1,1.47.2,2.151.3l.862.116c3.354.446,5.587.711,5.587.711s.014.06.035.172c0,.009,0,.019.007.028,0,.03.012.063.019.1.011.072.028.156.042.251.021.125.044.269.065.432a0,0,0,0,0,0,0c0,.039.011.081.016.123.019.135.037.279.053.434.012.107.023.221.035.334,0,.063.011.128.016.193s.012.144.016.216q.011.157.021.32c0,.044,0,.088,0,.133,0,.077.007.156.009.232,0,.042,0,.081,0,.121,0,.079,0,.16,0,.239C1426.277,765.075,1426.277,765.117,1426.28,765.159Z" transform="translate(-1226.178 -727.051)" fill="#f99746"/>
      <path id="Path_25509" data-name="Path 25509" d="M1701.57,804.419c-1.091.375-4.353,1.4-8.827,2.7a14.25,14.25,0,0,0-6.309-8.867l17.823-1.991C1704.554,798.473,1704.806,803.308,1701.57,804.419Z" transform="translate(-1504.319 -760.502)" fill="#e27727" opacity="0.5"/>
      <g id="Group_20209" data-name="Group 20209" transform="translate(34.281 26.207)">
        <path id="Path_25510" data-name="Path 25510" d="M1334.851,783.684h0a1.129,1.129,0,0,1-.951-1.277l.114-1.256a1.141,1.141,0,0,1,1.166-1.095h0a1.13,1.13,0,0,1,.951,1.277l-.114,1.256A1.142,1.142,0,0,1,1334.851,783.684Z" transform="translate(-1267.185 -774.228)" fill="#2b478b"/>
        <path id="Path_25511" data-name="Path 25511" d="M1311.126,781.635h0a1.129,1.129,0,0,1-.951-1.277l.114-1.256a1.141,1.141,0,0,1,1.166-1.095h0a1.13,1.13,0,0,1,.951,1.277l-.114,1.256A1.141,1.141,0,0,1,1311.126,781.635Z" transform="translate(-1248.919 -772.651)" fill="#2b478b"/>
        <path id="Path_25512" data-name="Path 25512" d="M1287.4,779.586h0a1.13,1.13,0,0,1-.951-1.277l.114-1.256a1.141,1.141,0,0,1,1.166-1.095h0a1.13,1.13,0,0,1,.951,1.277l-.114,1.256A1.141,1.141,0,0,1,1287.4,779.586Z" transform="translate(-1230.653 -771.073)" fill="#2b478b"/>
        <path id="Path_25513" data-name="Path 25513" d="M1263.675,777.537h0a1.129,1.129,0,0,1-.951-1.277l.114-1.256a1.142,1.142,0,0,1,1.166-1.095h0a1.13,1.13,0,0,1,.951,1.278l-.114,1.256A1.141,1.141,0,0,1,1263.675,777.537Z" transform="translate(-1212.387 -769.496)" fill="#2b478b"/>
        <path id="Path_25514" data-name="Path 25514" d="M1239.949,775.489h0a1.13,1.13,0,0,1-.951-1.277l.114-1.256a1.141,1.141,0,0,1,1.166-1.094h0a1.13,1.13,0,0,1,.951,1.277l-.114,1.256A1.141,1.141,0,0,1,1239.949,775.489Z" transform="translate(-1194.122 -767.919)" fill="#2b478b"/>
        <path id="Path_25515" data-name="Path 25515" d="M1216.224,773.44h0a1.13,1.13,0,0,1-.951-1.277l.114-1.256a1.141,1.141,0,0,1,1.166-1.095h0a1.13,1.13,0,0,1,.951,1.277l-.114,1.256A1.141,1.141,0,0,1,1216.224,773.44Z" transform="translate(-1175.856 -766.342)" fill="#2b478b"/>
        <path id="Path_25516" data-name="Path 25516" d="M1192.5,771.391h0a1.13,1.13,0,0,1-.951-1.278l.114-1.256a1.141,1.141,0,0,1,1.166-1.095h0a1.13,1.13,0,0,1,.951,1.277l-.114,1.256A1.142,1.142,0,0,1,1192.5,771.391Z" transform="translate(-1157.59 -764.764)" fill="#2b478b"/>
        <path id="Path_25517" data-name="Path 25517" d="M1168.773,769.342h0a1.13,1.13,0,0,1-.951-1.278l.114-1.256a1.141,1.141,0,0,1,1.166-1.095h0a1.13,1.13,0,0,1,.951,1.277l-.114,1.256A1.141,1.141,0,0,1,1168.773,769.342Z" transform="translate(-1139.324 -763.187)" fill="#2b478b"/>
        <path id="Path_25518" data-name="Path 25518" d="M1145.048,767.294h0a1.13,1.13,0,0,1-.951-1.277l.114-1.256a1.141,1.141,0,0,1,1.166-1.095h0a1.13,1.13,0,0,1,.951,1.277l-.114,1.256A1.141,1.141,0,0,1,1145.048,767.294Z" transform="translate(-1121.058 -761.61)" fill="#2b478b"/>
        <path id="Path_25519" data-name="Path 25519" d="M1121.8,765.285h0a1.13,1.13,0,0,1-.951-1.277l.114-1.256a1.142,1.142,0,0,1,1.166-1.095h0a1.13,1.13,0,0,1,.951,1.278l-.114,1.256A1.141,1.141,0,0,1,1121.8,765.285Z" transform="translate(-1103.157 -760.063)" fill="#2b478b"/>
        <path id="Path_25520" data-name="Path 25520" d="M1098.071,763.237h0a1.13,1.13,0,0,1-.951-1.277l.114-1.256a1.141,1.141,0,0,1,1.166-1.095h0a1.13,1.13,0,0,1,.951,1.277l-.114,1.256A1.141,1.141,0,0,1,1098.071,763.237Z" transform="translate(-1084.891 -758.487)" fill="#2b478b"/>
        <path id="Path_25521" data-name="Path 25521" d="M1074.346,761.188h0a1.13,1.13,0,0,1-.951-1.277l.114-1.256a1.141,1.141,0,0,1,1.166-1.095h0a1.13,1.13,0,0,1,.951,1.277l-.114,1.256A1.141,1.141,0,0,1,1074.346,761.188Z" transform="translate(-1066.626 -756.909)" fill="#2b478b"/>
        <path id="Path_25522" data-name="Path 25522" d="M1044.953,758.374h0A1.13,1.13,0,0,1,1044,757.1l.114-1.256a1.141,1.141,0,0,1,1.166-1.095h0a1.129,1.129,0,0,1,.951,1.277l-.114,1.256A1.141,1.141,0,0,1,1044.953,758.374Z" transform="translate(-1043.997 -754.742)" fill="#2b478b"/>
      </g>
      <g id="Group_20210" data-name="Group 20210" transform="translate(149.64 36.869)">
        <path id="Path_25523" data-name="Path 25523" d="M1593.714,808.8h0a1.13,1.13,0,0,1-.951-1.277l.114-1.256a1.141,1.141,0,0,1,1.166-1.094h0a1.13,1.13,0,0,1,.951,1.277l-.114,1.256A1.141,1.141,0,0,1,1593.714,808.8Z" transform="translate(-1581.838 -804.23)" fill="#2b478b"/>
        <path id="Path_25524" data-name="Path 25524" d="M1569.99,806.755h0a1.129,1.129,0,0,1-.951-1.277l.114-1.256a1.141,1.141,0,0,1,1.166-1.095h0a1.129,1.129,0,0,1,.951,1.277l-.114,1.256A1.141,1.141,0,0,1,1569.99,806.755Z" transform="translate(-1563.573 -802.652)" fill="#2b478b"/>
        <path id="Path_25525" data-name="Path 25525" d="M1546.264,804.706h0a1.13,1.13,0,0,1-.951-1.277l.114-1.256a1.141,1.141,0,0,1,1.166-1.095h0a1.13,1.13,0,0,1,.951,1.277l-.114,1.256A1.141,1.141,0,0,1,1546.264,804.706Z" transform="translate(-1545.307 -801.075)" fill="#2b478b"/>
      </g>
      <path id="Path_25526" data-name="Path 25526" d="M939.462,739.736l-3.722,3.512-2.221.144a3.565,3.565,0,0,0,.507-.376c.025-.022.048-.043.075-.069a25.9,25.9,0,0,1,2.041-1.712,24.948,24.948,0,0,1,2.336-1.552l.014-.008Z" transform="translate(-924.66 -716.934)" fill="#2b478b"/>
      <path id="Path_25527" data-name="Path 25527" d="M950.714,740.5l-3.635,3.545,4.126.875,1.3-4.047Z" transform="translate(-935.1 -717.571)" fill="#2b478b"/>
      <path id="Path_25528" data-name="Path 25528" d="M969.152,742.673l-.959,3.8,3.058-.87.2-2.648Z" transform="translate(-951.356 -719.243)" fill="#2b478b"/>
      <path id="Path_25529" data-name="Path 25529" d="M1272.033,845.295c1.6-.627,2.024-3.418.7-4.615a9.079,9.079,0,0,0-5.184-2.547c-4.2-.3-2.494,8.243-1.1,8.419A16.893,16.893,0,0,0,1272.033,845.295Z" transform="translate(-1179.781 -792.73)" fill="#2b478b"/>
      <path id="Path_25530" data-name="Path 25530" d="M1683.869,785.165c.169-.228,15.794-5.378,26.006-3.138l-9.835,6.193-15.812-1.359A1.049,1.049,0,0,1,1683.869,785.165Z" transform="translate(-1502.113 -749.108)" fill="#355daf"/>
      <path id="Path_25531" data-name="Path 25531" d="M1341.052,640.854s-10.459,23.114-12.45,26.622-6.343,5.748-6.343,5.748l-.026.009-27.712,11.259s-34.566-2.728-42.088-3.556h0c-.682-.076-1.142-.137-1.332-.177-2.286-.487-3.355-1.547-2.916-2.381s53.583-7.206,59.467-7.862c.056-.007.112-.014.167-.019,5.727-.675,6.259-2.624,6.259-2.624L1336,642.744a3,3,0,0,1,1.271-1.078A10.277,10.277,0,0,1,1341.052,640.854Z" transform="translate(-1166.841 -640.854)" fill="#d7e2ff"/>
      <path id="Path_25532" data-name="Path 25532" d="M1337.274,644.382c-5.9,7.162-22.221,26.911-23.771,28.256-1.667,1.447-49.354,9.112-61.071,11.015h0c-.682-.076-1.142-.137-1.332-.177-2.286-.487-3.355-1.547-2.916-2.381s53.583-7.206,59.467-7.862,6.427-2.643,6.427-2.643L1336,645.46A3,3,0,0,1,1337.274,644.382Z" transform="translate(-1166.841 -643.57)" fill="#739af0"/>
      <path id="Path_25533" data-name="Path 25533" d="M1540.893,640.854s-10.458,23.114-12.45,26.622-6.343,5.748-6.343,5.748l-.025.009a46.091,46.091,0,0,1-14.416-2.736c5.727-.675,6.26-2.624,6.26-2.624l21.926-25.13a3,3,0,0,1,1.271-1.078A10.275,10.275,0,0,1,1540.893,640.854Z" transform="translate(-1366.683 -640.854)" fill="#d7e2ff"/>
      <path id="Path_25534" data-name="Path 25534" d="M1204.913,819.237l-1.052,11.659a31.746,31.746,0,0,1-11.422,1.232,24.758,24.758,0,0,1-8.668-1.853,9.168,9.168,0,0,1-1.467-.778l1.1-12.222a4.009,4.009,0,0,1,1.6-.747c5.507-1.412,19.048,2.238,19.048,2.238Z" transform="translate(-1116.197 -775.853)" fill="#e9f0ff"/>
      <path id="Path_25535" data-name="Path 25535" d="M1185.012,817.615l-1.24,13.747a9.169,9.169,0,0,1-1.467-.778l1.1-12.223A4.008,4.008,0,0,1,1185.012,817.615Z" transform="translate(-1116.197 -776.94)" fill="#ff9843"/>
    </g>
    <g id="Group_20212" data-name="Group 20212" transform="translate(334.589 307.699)">
      <path id="Path_25536" data-name="Path 25536" d="M730.371,1075.026l81.878-21.855c1.733-.463,2.884-1.846,2.558-3.075L768.9,877.5c-.327-1.228-2.012-1.855-3.746-1.392l-81.878,21.855c-1.733.463-2.884,1.846-2.558,3.075l45.908,172.593C726.952,1074.862,728.637,1075.489,730.371,1075.026Z" transform="translate(-680.661 -875.958)" fill="#ffe3ca"/>
      <path id="Path_25537" data-name="Path 25537" d="M730.371,1142.645l6.732-1.8-47.1-177.06-6.732,1.8c-1.733.463-2.884,1.846-2.558,3.075l45.908,172.593C726.952,1142.481,728.637,1143.108,730.371,1142.645Z" transform="translate(-680.661 -943.577)" fill="#f2be8f"/>
      <rect id="Rectangle_28291" data-name="Rectangle 28291" width="53.613" height="10.874" transform="matrix(0.257, 0.966, -0.966, 0.257, 59.897, 26.404)" fill="#eabc92" opacity="0.5"/>
      <rect id="Rectangle_28292" data-name="Rectangle 28292" width="76.31" height="10.874" transform="translate(83.203 20.183) rotate(75.105)" fill="#eabc92" opacity="0.5"/>
      <rect id="Rectangle_28293" data-name="Rectangle 28293" width="38.155" height="2.424" transform="matrix(0.257, 0.966, -0.966, 0.257, 70.022, 23.698)" fill="#f2be8f"/>
      <rect id="Rectangle_28294" data-name="Rectangle 28294" width="38.155" height="2.424" transform="translate(46.871 29.877) rotate(75.105)" fill="#f2be8f"/>
      <path id="Path_25538" data-name="Path 25538" d="M779.411,1022.111l.22.6a.245.245,0,0,0,.031.059l2.91,4.205a.261.261,0,0,1,.044.177l-.215,7.426c-.021.2-.872-.642-1.034-.754-1.766-1.216-6.491-5.38-8.466-6.875a.452.452,0,0,0-.721.409.984.984,0,0,0,.218.517l6.813,8.307-.36,1.566a.425.425,0,0,0,.318.508l1.214.278a.426.426,0,0,0,.506-.307l.878,1.07a.26.26,0,0,1,.058.182l-.436,6.741a2.585,2.585,0,0,0,.48,1.675l.436.605a.883.883,0,0,0,1.263.175l.2-.156a2.756,2.756,0,0,0,1.048-2.1l.114-5.382a.261.261,0,0,1,.169-.239l2.039-.766-.077.332a.425.425,0,0,0,.318.508l1.214.277a.426.426,0,0,0,.509-.319l.387-1.683,3.182-1.2a1.392,1.392,0,0,0,.64-.49c.2-.284.434-.588.378-.647a69.513,69.513,0,0,0-8.074-.654c-.125,0-.107-1.059-.1-1.184l-.3-7.177a.26.26,0,0,1,.138-.224l1.789-.954a1,1,0,0,0,.448-.487l0-.008a.26.26,0,0,0-.177-.355l-2.839-.694a.26.26,0,0,1-.181-.158l-.267-.688a.26.26,0,0,0-.48-.013l-.1.227-3.733-2.637A.26.26,0,0,0,779.411,1022.111Z" transform="translate(-751.117 -988.21)" fill="#f2be8f"/>
    </g>
    <g id="Group_20217" data-name="Group 20217" transform="translate(335.486 378.02)">
      <path id="Rectangle_28295" data-name="Rectangle 28295" d="M0,0H83.157a32.082,32.082,0,0,1,32.082,32.082v83.971a32.93,32.93,0,0,1-32.93,32.93H0a0,0,0,0,1,0,0V0A0,0,0,0,1,0,0Z" fill="#739af0"/>
      <g id="Group_20213" data-name="Group 20213" transform="translate(14.702 10.782)">
        <path id="Path_25539" data-name="Path 25539" d="M750.629,1237.05v4.667h-2.183v-12.56h4.8a5.872,5.872,0,0,1,1.945.3,4.137,4.137,0,0,1,1.436.832,3.547,3.547,0,0,1,.893,1.268,4.1,4.1,0,0,1,.306,1.6,4.174,4.174,0,0,1-.306,1.639,3.245,3.245,0,0,1-.893,1.225,4.063,4.063,0,0,1-1.436.768,6.482,6.482,0,0,1-1.945.267Zm0-1.751h2.622a3.351,3.351,0,0,0,1.083-.156,1.962,1.962,0,0,0,.746-.44,1.692,1.692,0,0,0,.427-.677,2.642,2.642,0,0,0,.134-.858,2.682,2.682,0,0,0-.134-.845,1.938,1.938,0,0,0-.427-.72,2.075,2.075,0,0,0-.746-.5,2.854,2.854,0,0,0-1.083-.185h-2.622Z" transform="translate(-748.446 -1228.984)" fill="#aec3ff"/>
        <path id="Path_25540" data-name="Path 25540" d="M794.123,1238.792h-4.865l-1.018,2.924h-2.269l4.744-12.56h1.958l4.753,12.56h-2.277Zm-4.253-1.76h3.64l-1.82-5.21Z" transform="translate(-777.336 -1228.984)" fill="#aec3ff"/>
        <path id="Path_25541" data-name="Path 25541" d="M846.368,1237.9a1.913,1.913,0,0,0-.112-.677,1.342,1.342,0,0,0-.41-.548,3.422,3.422,0,0,0-.82-.479,12.677,12.677,0,0,0-1.341-.479,12.9,12.9,0,0,1-1.656-.612,5.713,5.713,0,0,1-1.307-.8,3.431,3.431,0,0,1-.858-1.052,2.9,2.9,0,0,1-.31-1.363,3.048,3.048,0,0,1,.323-1.4,3.31,3.31,0,0,1,.91-1.1,4.334,4.334,0,0,1,1.406-.725,6,6,0,0,1,1.811-.259,5.584,5.584,0,0,1,1.906.306,4.274,4.274,0,0,1,1.428.833,3.63,3.63,0,0,1,.893,1.22,3.589,3.589,0,0,1,.31,1.48h-2.174a2.4,2.4,0,0,0-.143-.841,1.746,1.746,0,0,0-.436-.664,2.006,2.006,0,0,0-.742-.436,3.246,3.246,0,0,0-1.061-.155,3.431,3.431,0,0,0-1,.129,2,2,0,0,0-.7.362,1.431,1.431,0,0,0-.414.552,1.769,1.769,0,0,0-.134.69,1.384,1.384,0,0,0,.66,1.164,7.018,7.018,0,0,0,2.014.862,11.736,11.736,0,0,1,1.837.69,5.259,5.259,0,0,1,1.29.859,3.1,3.1,0,0,1,.764,1.078,3.481,3.481,0,0,1,.25,1.35,3.164,3.164,0,0,1-.315,1.427,3.046,3.046,0,0,1-.9,1.078,4.206,4.206,0,0,1-1.41.682,6.694,6.694,0,0,1-1.846.237,6.6,6.6,0,0,1-1.786-.246,5.045,5.045,0,0,1-1.578-.742,3.862,3.862,0,0,1-1.126-1.238,3.431,3.431,0,0,1-.427-1.742h2.182a2.284,2.284,0,0,0,.211,1.022,1.9,1.9,0,0,0,.578.7,2.414,2.414,0,0,0,.867.4,4.424,4.424,0,0,0,1.078.125,2.692,2.692,0,0,0,1.712-.462A1.489,1.489,0,0,0,846.368,1237.9Z" transform="translate(-818.289 -1228.407)" fill="#aec3ff"/>
        <path id="Path_25542" data-name="Path 25542" d="M892.7,1237.9a1.913,1.913,0,0,0-.112-.677,1.338,1.338,0,0,0-.41-.548,3.414,3.414,0,0,0-.819-.479,12.657,12.657,0,0,0-1.341-.479,12.906,12.906,0,0,1-1.656-.612,5.714,5.714,0,0,1-1.307-.8,3.433,3.433,0,0,1-.858-1.052,2.9,2.9,0,0,1-.31-1.363,3.047,3.047,0,0,1,.323-1.4,3.314,3.314,0,0,1,.91-1.1,4.335,4.335,0,0,1,1.406-.725,6,6,0,0,1,1.812-.259,5.583,5.583,0,0,1,1.906.306,4.275,4.275,0,0,1,1.428.833,3.586,3.586,0,0,1,1.2,2.7H892.7a2.4,2.4,0,0,0-.142-.841,1.751,1.751,0,0,0-.436-.664,2.008,2.008,0,0,0-.742-.436,3.248,3.248,0,0,0-1.061-.155,3.432,3.432,0,0,0-1,.129,2,2,0,0,0-.7.362,1.431,1.431,0,0,0-.414.552,1.767,1.767,0,0,0-.134.69,1.384,1.384,0,0,0,.66,1.164,7.014,7.014,0,0,0,2.014.862,11.736,11.736,0,0,1,1.837.69,5.257,5.257,0,0,1,1.29.859,3.1,3.1,0,0,1,.764,1.078,3.476,3.476,0,0,1,.25,1.35,3.165,3.165,0,0,1-.315,1.427,3.048,3.048,0,0,1-.9,1.078,4.2,4.2,0,0,1-1.411.682,6.694,6.694,0,0,1-1.846.237,6.606,6.606,0,0,1-1.786-.246,5.051,5.051,0,0,1-1.579-.742,3.862,3.862,0,0,1-1.126-1.238,3.431,3.431,0,0,1-.427-1.742h2.182a2.278,2.278,0,0,0,.212,1.022,1.9,1.9,0,0,0,.578.7,2.413,2.413,0,0,0,.867.4,4.422,4.422,0,0,0,1.078.125,2.693,2.693,0,0,0,1.713-.462A1.489,1.489,0,0,0,892.7,1237.9Z" transform="translate(-853.96 -1228.407)" fill="#aec3ff"/>
        <path id="Path_25543" data-name="Path 25543" d="M936.788,1237.05v4.667H934.6v-12.56h4.8a5.872,5.872,0,0,1,1.945.3,4.14,4.14,0,0,1,1.436.832,3.549,3.549,0,0,1,.893,1.268,4.1,4.1,0,0,1,.306,1.6,4.173,4.173,0,0,1-.306,1.639,3.247,3.247,0,0,1-.893,1.225,4.066,4.066,0,0,1-1.436.768,6.483,6.483,0,0,1-1.945.267Zm0-1.751h2.622a3.352,3.352,0,0,0,1.083-.156,1.967,1.967,0,0,0,.746-.44,1.694,1.694,0,0,0,.427-.677,2.647,2.647,0,0,0,.134-.858,2.687,2.687,0,0,0-.134-.845,1.941,1.941,0,0,0-.427-.72,2.081,2.081,0,0,0-.746-.5,2.855,2.855,0,0,0-1.083-.185h-2.622Z" transform="translate(-891.767 -1228.984)" fill="#aec3ff"/>
        <path id="Path_25544" data-name="Path 25544" d="M992.371,1235.187a8.157,8.157,0,0,1-.375,2.566,5.6,5.6,0,0,1-1.057,1.924,4.584,4.584,0,0,1-1.639,1.212,5.516,5.516,0,0,1-4.235,0,4.706,4.706,0,0,1-1.652-1.212,5.58,5.58,0,0,1-1.078-1.924,7.976,7.976,0,0,1-.384-2.566v-.638a8.02,8.02,0,0,1,.384-2.571,5.7,5.7,0,0,1,1.07-1.932,4.6,4.6,0,0,1,1.643-1.216,5.176,5.176,0,0,1,2.113-.423,5.229,5.229,0,0,1,2.126.423,4.591,4.591,0,0,1,1.648,1.216,5.6,5.6,0,0,1,1.061,1.932,8.2,8.2,0,0,1,.375,2.571Zm-2.182-.656a7.674,7.674,0,0,0-.2-1.859,3.965,3.965,0,0,0-.591-1.35,2.56,2.56,0,0,0-.953-.824,2.843,2.843,0,0,0-1.281-.281,2.775,2.775,0,0,0-1.259.281,2.6,2.6,0,0,0-.953.824,4.027,4.027,0,0,0-.6,1.35,7.364,7.364,0,0,0-.211,1.859v.656a7.417,7.417,0,0,0,.211,1.863,4.022,4.022,0,0,0,.608,1.359,2.612,2.612,0,0,0,.962.828,2.806,2.806,0,0,0,1.263.28,2.567,2.567,0,0,0,2.23-1.1,5.565,5.565,0,0,0,.781-3.226Z" transform="translate(-928.218 -1228.407)" fill="#aec3ff"/>
        <path id="Path_25545" data-name="Path 25545" d="M1041.3,1236.877h-2.432v4.839h-2.182v-12.56h4.417a6.88,6.88,0,0,1,1.923.246,3.952,3.952,0,0,1,1.428.724,3.074,3.074,0,0,1,.884,1.186,4.146,4.146,0,0,1,.3,1.639,3.53,3.53,0,0,1-.608,2.109,3.869,3.869,0,0,1-1.7,1.307l2.821,5.236v.112h-2.338Zm-2.432-1.751h2.243a3.082,3.082,0,0,0,1.026-.155,2.045,2.045,0,0,0,.733-.431,1.764,1.764,0,0,0,.44-.656,2.305,2.305,0,0,0,.146-.837,2.634,2.634,0,0,0-.138-.875,1.742,1.742,0,0,0-.423-.673,1.877,1.877,0,0,0-.729-.431,3.325,3.325,0,0,0-1.065-.151h-2.234Z" transform="translate(-970.355 -1228.984)" fill="#aec3ff"/>
        <path id="Path_25546" data-name="Path 25546" d="M1088.818,1230.917H1084.9v10.8h-2.165v-10.8h-3.881v-1.76h9.963Z" transform="translate(-1002.823 -1228.984)" fill="#aec3ff"/>
      </g>
      <g id="Group_20214" data-name="Group 20214" transform="translate(35.69 130.975)">
        <path id="Path_25547" data-name="Path 25547" d="M911.608,1752.747H894.29a1.01,1.01,0,0,1-1.01-1.01h0a1.01,1.01,0,0,1,1.01-1.01h17.318a1.01,1.01,0,0,1,1.01,1.01h0A1.01,1.01,0,0,1,911.608,1752.747Z" transform="translate(-880.94 -1750.727)" fill="#aec3ff"/>
        <path id="Path_25548" data-name="Path 25548" d="M882.663,1773.668h-42a1.01,1.01,0,0,1-1.01-1.01h0a1.01,1.01,0,0,1,1.01-1.01h42a1.01,1.01,0,0,1,1.01,1.01h0A1.01,1.01,0,0,1,882.663,1773.668Z" transform="translate(-839.655 -1766.834)" fill="#aec3ff"/>
      </g>
      <g id="Group_20215" data-name="Group 20215" transform="translate(16.621 36.122)">
        <path id="Path_25549" data-name="Path 25549" d="M797.866,1420.683a41.078,41.078,0,1,1,29.046-12.031A40.81,40.81,0,0,1,797.866,1420.683Zm0-81.7a40.625,40.625,0,1,0,28.727,11.9A40.36,40.36,0,0,0,797.866,1338.979Z" transform="translate(-756.788 -1338.527)" fill="#aec3ff"/>
      </g>
      <path id="Path_25550" data-name="Path 25550" d="M858.036,1406.842a33.158,33.158,0,0,1-.532,5.933,32.947,32.947,0,0,1-62.53,7.4,32.361,32.361,0,0,1-1.678-4.737,33.173,33.173,0,0,1-.388-15.606c.005-.026.011-.051.016-.077a33.024,33.024,0,0,1,12.856-19.594q1.016-.737,2.09-1.4A32.76,32.76,0,0,1,825.1,1373.9q1.257,0,2.489.093a32.729,32.729,0,0,1,16.313,5.8h0a33.061,33.061,0,0,1,9.035,9.434q.757,1.2,1.413,2.456a32.793,32.793,0,0,1,3.685,15.156Z" transform="translate(-767.4 -1329.641)" fill="#aec3ff"/>
      <g id="Group_20216" data-name="Group 20216" transform="translate(25.509 48.816)">
        <path id="Path_25551" data-name="Path 25551" d="M816.41,1408.363c-1.314,2.082.549,5.7-3.394,4.71s-6.353-1.425-6.572.766,2.957,2.192,2.957,4.492-1.424,3.061-3.614,1.968-2.821-2.681-5.368-1.7-4.025.328-4.6-1.643a2.882,2.882,0,0,0-.409-.862c.005-.026.012-.051.016-.077a33.024,33.024,0,0,1,12.856-19.594q1.016-.737,2.09-1.4a4.333,4.333,0,0,1,3.3,1.722c2.3,2.849,3.833,1.425,3.286,4.71s.328,3.725,2.19,3.615,4.053-.11,4.272,1.314S817.725,1406.281,816.41,1408.363Z" transform="translate(-795.41 -1394.722)" fill="#94b0ed"/>
        <path id="Path_25552" data-name="Path 25552" d="M889.311,1517.512s-2.9.931-3.669-1.1.109-2.464-2.464-3.067-2.793-2.355-4.436-2.136-.821.876-2.738,2.3-3.669.767-3.614,3.4,2.9,3.04,3.477,4.764-.411,2.464.821,3.779,3.532.74,2.465,2.547-2.711,3.2-1.889,6,.246,2.957,1.643,4.929,4.108,2.629,4.518,1.314-1.889-3.039-1.15-4.354,1.972-.411,2.464-2.382,2.492-1.972,2.656-3.341-2.41-3.45-1.424-4.327,2.957,1.588,4.491-.6.493-3.943,2.081-6.024S890.406,1516.307,889.311,1517.512Z" transform="translate(-854.674 -1484.156)" fill="#94b0ed"/>
        <path id="Path_25553" data-name="Path 25553" d="M993.4,1470.591a33.162,33.162,0,0,1-.532,5.933,32.753,32.753,0,0,1-5.2,12.636,3.761,3.761,0,0,1-2.633-.071c-4.108-1.643-1.068-6.079.575-8.3s-2.547-1.232-5.586-3.286.329-7.558-2.793-6.654-6.9,2.054-8.707-.986,1.643-3.533.082-6.079.9-4.025,4.025-4.272,2.711-2.465,6.572-2.793,3.779,4.6,8.051,4.272,4.079.657,4.079.657a1.991,1.991,0,0,1,.892.188A32.991,32.991,0,0,1,993.4,1470.591Z" transform="translate(-928.274 -1442.206)" fill="#94b0ed"/>
        <path id="Path_25554" data-name="Path 25554" d="M995.618,1411.4c-3.552,1.728-4.978-2.972-8.014-1.559-3.061,1.424-2.525-1.314-4.934-3.067s-7.229,1.425-7.01-1.315,3.833-1.971,4.6-4.162,4.272-1.643,4.272-1.643a2.367,2.367,0,0,1,.637-.145s0,0,0,0a33.066,33.066,0,0,1,9.035,9.434Q994.961,1410.134,995.618,1411.4Z" transform="translate(-934.176 -1398.166)" fill="#94b0ed"/>
        <path id="Path_25555" data-name="Path 25555" d="M903.342,1397.474s1.862-2.687-1.1-3.479-2.9.245-5.2,0-3.2,1.535-1.479,3.479,3.122,5.675,4.682,3.686S901.507,1397.665,903.342,1397.474Z" transform="translate(-871.826 -1393.691)" fill="#94b0ed"/>
      </g>
    </g>
  </g>
</svg>
